<mxfile host="Electron" modified="2023-07-17T02:41:48.448Z" agent="Mozilla/5.0 (Windows NT 10.0; Win64; x64) AppleWebKit/537.36 (KHTML, like Gecko) draw.io/21.5.1 Chrome/112.0.5615.204 Electron/24.6.0 Safari/537.36" etag="QSS2ws3oTYbx3OhAf5xF" version="21.5.1" type="device">
  <diagram name="Page-1" id="4NdTCrB0yl297gs89w7f">
    <mxGraphModel dx="1098" dy="672" grid="1" gridSize="10" guides="1" tooltips="1" connect="1" arrows="1" fold="1" page="1" pageScale="1" pageWidth="850" pageHeight="1100" math="0" shadow="0">
      <root>
        <mxCell id="0" />
        <mxCell id="1" parent="0" />
        <mxCell id="5UlGaXj-KDVdqG9eecwK-5" style="edgeStyle=orthogonalEdgeStyle;rounded=0;orthogonalLoop=1;jettySize=auto;html=1;entryX=0;entryY=0.5;entryDx=0;entryDy=0;entryPerimeter=0;" edge="1" parent="1" source="5UlGaXj-KDVdqG9eecwK-1" target="5UlGaXj-KDVdqG9eecwK-3">
          <mxGeometry relative="1" as="geometry" />
        </mxCell>
        <mxCell id="5UlGaXj-KDVdqG9eecwK-1" value="&lt;font style=&quot;font-size: 16px;&quot;&gt;&lt;b&gt;Kinesis Data Streams&lt;/b&gt;&lt;/font&gt;" style="sketch=0;points=[[0,0,0],[0.25,0,0],[0.5,0,0],[0.75,0,0],[1,0,0],[0,1,0],[0.25,1,0],[0.5,1,0],[0.75,1,0],[1,1,0],[0,0.25,0],[0,0.5,0],[0,0.75,0],[1,0.25,0],[1,0.5,0],[1,0.75,0]];outlineConnect=0;fontColor=#232F3E;gradientColor=#945DF2;gradientDirection=north;fillColor=#5A30B5;strokeColor=#ffffff;dashed=0;verticalLabelPosition=bottom;verticalAlign=top;align=center;html=1;fontSize=12;fontStyle=0;aspect=fixed;shape=mxgraph.aws4.resourceIcon;resIcon=mxgraph.aws4.kinesis_data_streams;" vertex="1" parent="1">
          <mxGeometry x="390" y="310" width="78" height="78" as="geometry" />
        </mxCell>
        <mxCell id="5UlGaXj-KDVdqG9eecwK-4" style="edgeStyle=orthogonalEdgeStyle;rounded=0;orthogonalLoop=1;jettySize=auto;html=1;" edge="1" parent="1" source="5UlGaXj-KDVdqG9eecwK-2" target="5UlGaXj-KDVdqG9eecwK-1">
          <mxGeometry relative="1" as="geometry" />
        </mxCell>
        <mxCell id="5UlGaXj-KDVdqG9eecwK-2" value="&lt;font style=&quot;font-size: 16px;&quot;&gt;&lt;b&gt;Cloudshell&lt;/b&gt;&lt;/font&gt;" style="sketch=0;points=[[0,0,0],[0.25,0,0],[0.5,0,0],[0.75,0,0],[1,0,0],[0,1,0],[0.25,1,0],[0.5,1,0],[0.75,1,0],[1,1,0],[0,0.25,0],[0,0.5,0],[0,0.75,0],[1,0.25,0],[1,0.5,0],[1,0.75,0]];outlineConnect=0;fontColor=#232F3E;gradientColor=#4D72F3;gradientDirection=north;fillColor=#3334B9;strokeColor=#ffffff;dashed=0;verticalLabelPosition=bottom;verticalAlign=top;align=center;html=1;fontSize=12;fontStyle=0;aspect=fixed;shape=mxgraph.aws4.resourceIcon;resIcon=mxgraph.aws4.cloudshell;" vertex="1" parent="1">
          <mxGeometry x="160" y="310" width="78" height="78" as="geometry" />
        </mxCell>
        <mxCell id="5UlGaXj-KDVdqG9eecwK-3" value="&lt;font style=&quot;font-size: 16px;&quot;&gt;&lt;b&gt;Amazon Web Console&lt;/b&gt;&lt;/font&gt;" style="outlineConnect=0;dashed=0;verticalLabelPosition=bottom;verticalAlign=top;align=center;html=1;shape=mxgraph.aws3.management_console;fillColor=#F58534;gradientColor=none;" vertex="1" parent="1">
          <mxGeometry x="640" y="310" width="78" height="78" as="geometry" />
        </mxCell>
      </root>
    </mxGraphModel>
  </diagram>
</mxfile>
